
<svg width="525pt" height="57pt" viewBox="0 0 525 57" xmlns="http://www.w3.org/2000/svg"><g id="fontsvg1707905010833" stroke-linecap="round" fill-rule="evenodd" fill="#000000"><path d="M 210.938 56.25 L 192.188 56.25 L 192.188 51.563 L 187.5 51.563 L 187.5 46.875 L 196.875 46.875 L 196.875 51.563 L 206.25 51.563 L 206.25 42.188 L 192.188 42.188 L 192.188 37.5 L 187.5 37.5 L 187.5 14.063 L 196.875 14.063 L 196.875 37.5 L 206.25 37.5 L 206.25 14.063 L 215.625 14.063 L 215.625 51.563 L 210.938 51.563 L 210.938 56.25 Z M 262.5 46.875 L 253.125 46.875 L 253.125 4.688 L 262.5 4.688 L 262.5 14.063 L 267.188 14.063 L 267.188 18.75 L 271.875 18.75 L 271.875 4.688 L 281.25 4.688 L 281.25 46.875 L 271.875 46.875 L 271.875 28.125 L 267.188 28.125 L 267.188 23.438 L 262.5 23.438 L 262.5 46.875 Z M 328.125 46.875 L 318.75 46.875 L 318.75 4.688 L 328.125 4.688 L 328.125 28.125 L 332.813 28.125 L 332.813 23.438 L 337.5 23.438 L 337.5 14.063 L 346.875 14.063 L 346.875 23.438 L 342.188 23.438 L 342.188 28.125 L 337.5 28.125 L 337.5 32.813 L 342.188 32.813 L 342.188 37.5 L 346.875 37.5 L 346.875 46.875 L 337.5 46.875 L 337.5 37.5 L 332.813 37.5 L 332.813 32.813 L 328.125 32.813 L 328.125 46.875 Z M 46.875 46.875 L 37.5 46.875 L 37.5 14.063 L 60.938 14.063 L 60.938 18.75 L 65.625 18.75 L 65.625 46.875 L 56.25 46.875 L 56.25 18.75 L 46.875 18.75 L 46.875 46.875 Z M 9.375 46.875 L 0 46.875 L 0 9.375 L 4.688 9.375 L 4.688 4.688 L 23.438 4.688 L 23.438 9.375 L 28.125 9.375 L 28.125 46.875 L 18.75 46.875 L 18.75 32.813 L 9.375 32.813 L 9.375 46.875 Z M 173.438 46.875 L 154.688 46.875 L 154.688 42.188 L 150 42.188 L 150 18.75 L 154.688 18.75 L 154.688 14.063 L 173.438 14.063 L 173.438 18.75 L 178.125 18.75 L 178.125 32.813 L 159.375 32.813 L 159.375 42.188 L 168.75 42.188 L 168.75 37.5 L 178.125 37.5 L 178.125 42.188 L 173.438 42.188 L 173.438 46.875 Z M 450 46.875 L 426.563 46.875 L 426.563 42.188 L 421.875 42.188 L 421.875 32.813 L 426.563 32.813 L 426.563 28.125 L 440.625 28.125 L 440.625 18.75 L 431.25 18.75 L 431.25 23.438 L 421.875 23.438 L 421.875 18.75 L 426.563 18.75 L 426.563 14.063 L 445.313 14.063 L 445.313 18.75 L 450 18.75 L 450 46.875 Z M 482.813 46.875 L 464.063 46.875 L 464.063 42.188 L 459.375 42.188 L 459.375 18.75 L 464.063 18.75 L 464.063 14.063 L 482.813 14.063 L 482.813 18.75 L 487.5 18.75 L 487.5 32.813 L 468.75 32.813 L 468.75 42.188 L 478.125 42.188 L 478.125 37.5 L 487.5 37.5 L 487.5 42.188 L 482.813 42.188 L 482.813 46.875 Z M 515.625 46.875 L 506.25 46.875 L 506.25 42.188 L 501.563 42.188 L 501.563 37.5 L 496.875 37.5 L 496.875 14.063 L 506.25 14.063 L 506.25 37.5 L 515.625 37.5 L 515.625 14.063 L 525 14.063 L 525 37.5 L 520.313 37.5 L 520.313 42.188 L 515.625 42.188 L 515.625 46.875 Z M 103.125 46.875 L 79.688 46.875 L 79.688 42.188 L 75 42.188 L 75 18.75 L 79.688 18.75 L 79.688 14.063 L 93.75 14.063 L 93.75 4.688 L 103.125 4.688 L 103.125 46.875 Z M 121.875 46.875 L 112.5 46.875 L 112.5 14.063 L 135.938 14.063 L 135.938 18.75 L 140.625 18.75 L 140.625 28.125 L 131.25 28.125 L 131.25 18.75 L 121.875 18.75 L 121.875 46.875 Z M 412.5 46.875 L 393.75 46.875 L 393.75 42.188 L 398.438 42.188 L 398.438 9.375 L 393.75 9.375 L 393.75 4.688 L 407.813 4.688 L 407.813 42.188 L 412.5 42.188 L 412.5 46.875 Z M 379.688 46.875 L 360.938 46.875 L 360.938 42.188 L 356.25 42.188 L 356.25 18.75 L 360.938 18.75 L 360.938 14.063 L 379.688 14.063 L 379.688 18.75 L 384.375 18.75 L 384.375 42.188 L 379.688 42.188 L 379.688 46.875 Z M 309.375 46.875 L 290.625 46.875 L 290.625 42.188 L 295.313 42.188 L 295.313 18.75 L 290.625 18.75 L 290.625 14.063 L 304.688 14.063 L 304.688 42.188 L 309.375 42.188 L 309.375 46.875 Z M 84.375 42.188 L 93.75 42.188 L 93.75 18.75 L 84.375 18.75 L 84.375 42.188 Z M 365.625 42.188 L 375 42.188 L 375 18.75 L 365.625 18.75 L 365.625 42.188 Z M 9.375 28.125 L 18.75 28.125 L 18.75 9.375 L 9.375 9.375 L 9.375 28.125 Z M 159.375 28.125 L 168.75 28.125 L 168.75 18.75 L 159.375 18.75 L 159.375 28.125 Z M 304.688 9.375 L 295.313 9.375 L 295.313 0 L 304.688 0 L 304.688 9.375 Z M 431.25 42.188 L 440.625 42.188 L 440.625 32.813 L 431.25 32.813 L 431.25 42.188 Z M 468.75 28.125 L 478.125 28.125 L 478.125 18.75 L 468.75 18.75 L 468.75 28.125 Z" vector-effect="non-scaling-stroke"/></g></svg>
